<?xml version="1.0" encoding="UTF-8" standalone="no"?>
<!-- Created with Inkscape (http://www.inkscape.org/) -->

<svg
   xmlns:dc="http://purl.org/dc/elements/1.1/"
   xmlns:cc="http://creativecommons.org/ns#"
   xmlns:rdf="http://www.w3.org/1999/02/22-rdf-syntax-ns#"
   xmlns:svg="http://www.w3.org/2000/svg"
   xmlns="http://www.w3.org/2000/svg"
   xmlns:sodipodi="http://sodipodi.sourceforge.net/DTD/sodipodi-0.dtd"
   xmlns:inkscape="http://www.inkscape.org/namespaces/inkscape"
   width="45.135792mm"
   height="12.077411mm"
   viewBox="0 0 159.92997 42.793975"
   id="svg5379"
   version="1.1"
   inkscape:version="0.91 r13725"
   sodipodi:docname="NANO.svg"
   inkscape:export-filename="/home/kennedy/Work/nanoincognito/NANO Logo Kit/PNGs/NANO/NANO-transparent-black-black.png"
   inkscape:export-xdpi="288.13"
   inkscape:export-ydpi="288.13">
  <defs
     id="defs5381" />
  <sodipodi:namedview
     id="base"
     pagecolor="#ffffff"
     bordercolor="#666666"
     borderopacity="1.0"
     inkscape:pageopacity="0.0"
     inkscape:pageshadow="2"
     inkscape:zoom="1.979899"
     inkscape:cx="-252.96307"
     inkscape:cy="60.613503"
     inkscape:document-units="px"
     inkscape:current-layer="layer1"
     showgrid="false"
     inkscape:window-width="3200"
     inkscape:window-height="1693"
     inkscape:window-x="0"
     inkscape:window-y="0"
     inkscape:window-maximized="1"
     fit-margin-top="0"
     fit-margin-left="0"
     fit-margin-right="0"
     fit-margin-bottom="0" />
  <metadata
     id="metadata5384">
    <rdf:RDF>
      <cc:Work
         rdf:about="">
        <dc:format>image/svg+xml</dc:format>
        <dc:type
           rdf:resource="http://purl.org/dc/dcmitype/StillImage" />
        <dc:title />
      </cc:Work>
    </rdf:RDF>
  </metadata>
  <g
     inkscape:label="Layer 1"
     inkscape:groupmode="layer"
     id="layer1"
     transform="translate(-40.035023,-150.96522)">
    <g
       transform="matrix(0.54341554,0,0,0.54341554,1402.4607,-160.89013)"
       id="g5036">
      <rect
         ry="2"
         rx="2"
         y="574.50507"
         x="-2506.5276"
         height="77.5"
         width="293.05511"
         id="rect4592"
         style="color:#000000;clip-rule:nonzero;display:inline;overflow:visible;visibility:visible;opacity:1;isolation:auto;mix-blend-mode:normal;color-interpolation:sRGB;color-interpolation-filters:linearRGB;solid-color:#000000;solid-opacity:1;fill:#ffffff;fill-opacity:1;fill-rule:nonzero;stroke:#545454;stroke-width:1.25;stroke-linecap:butt;stroke-linejoin:miter;stroke-miterlimit:4;stroke-dasharray:none;stroke-dashoffset:0;stroke-opacity:1;color-rendering:auto;image-rendering:auto;shape-rendering:auto;text-rendering:auto;enable-background:accumulate" />
      <g
         id="g4565"
         transform="translate(-2468,598.55507)">
        <circle
           id="circle4550"
           r="4.8000002"
           cy="24.4"
           cx="4.8000002"
           class="st0"
           style="fill:#4a90e2" />
        <path
           id="path4552"
           d="m 62,0.6 c -2.6,0 -4.8,2.1 -4.8,4.8 0,3.8 -0.6,4.8 -4.8,4.8 l -0.4,0 c -2.4,0.2 -4.3,2.2 -4.3,4.7 l 0,0.1 c 0,3.7 -0.7,4.6 -4.8,4.6 -0.2,0 -0.4,0 -0.5,0.1 -2.4,0.3 -4.3,2.3 -4.3,4.7 0,2.6 2.1,4.8 4.8,4.8 2.5,0 4.6,-2 4.7,-4.4 l 0,-0.4 c 0,-3.4 1.1,-4.7 4.7,-4.8 l 0.1,0 c 2.5,0 4.6,-2 4.7,-4.5 l 0,-0.3 c 0,-3.5 1.1,-4.8 4.8,-4.8 2.6,0 4.8,-2.1 4.8,-4.8 0,-2.5 -2.1,-4.6 -4.7,-4.6 z m -28.2,9.6 -0.4,0 c -4.2,0 -4.8,-1 -4.8,-4.8 0,-2.6 -2.1,-4.8 -4.8,-4.8 -2.6,0 -4.8,2.1 -4.8,4.8 0,3.8 -0.6,4.7 -4.8,4.7 l -0.4,0 c -2.4,0.2 -4.3,2.2 -4.3,4.7 0,2.6 2.1,4.8 4.8,4.8 2.5,0 4.6,-2 4.7,-4.4 l 0,-0.3 c 0,-3.5 1.1,-4.8 4.8,-4.8 3.7,0 4.8,1.3 4.8,4.7 0,2.6 2.1,4.8 4.8,4.8 2.7,0 4.8,-2.1 4.8,-4.8 -0.1,-2.4 -2,-4.4 -4.4,-4.6 z"
           class="st0"
           inkscape:connector-curvature="0"
           style="fill:#4a90e2" />
        <g
           id="g4554">
          <path
             id="path4556"
             d="m 109.3,0.8 c -0.3,0 -0.6,0.1 -0.8,0.4 -0.2,0.2 -0.3,0.5 -0.3,0.9 L 108.2,25 90.7,1.4 C 90.4,1 90.1,0.8 89.7,0.8 89.3,0.8 89,0.9 88.8,1.2 88.6,1.4 88.5,1.7 88.5,2.1 l 0,26 c 0,0.4 0.1,0.7 0.3,0.9 0.2,0.2 0.5,0.3 0.9,0.3 0.3,0 0.6,-0.1 0.8,-0.4 0.2,-0.2 0.3,-0.5 0.3,-0.9 l 0,-22.8 17.5,23.6 c 0.3,0.4 0.7,0.6 1.1,0.6 0.4,0 0.7,-0.1 0.9,-0.4 0.2,-0.2 0.3,-0.5 0.3,-0.9 l 0,-26 c 0,-0.4 -0.1,-0.7 -0.3,-0.9 -0.3,-0.3 -0.6,-0.4 -1,-0.4 z m 92,-0.8 c -8.1,0 -14.7,6.6 -14.7,14.7 0,8.1 6.6,14.7 14.7,14.7 8.1,0 14.7,-6.6 14.7,-14.7 C 216,6.6 209.4,0 201.3,0 Z m 0,27 C 194.5,27 189,21.5 189,14.7 c 0,-6.8 5.5,-12.3 12.3,-12.3 6.8,0 12.3,5.5 12.3,12.3 0,6.8 -5.5,12.3 -12.3,12.3 z M 177,0.8 c -0.3,0 -0.6,0.1 -0.8,0.4 -0.2,0.2 -0.3,0.5 -0.3,0.9 l 0,22.9 -17.5,-23.6 c -0.3,-0.4 -0.6,-0.6 -1,-0.6 -0.4,0 -0.7,0.1 -0.9,0.4 -0.2,0.2 -0.3,0.5 -0.3,0.9 l 0,26 c 0,0.4 0.1,0.7 0.3,0.9 0.2,0.2 0.5,0.3 0.9,0.3 0.3,0 0.6,-0.1 0.8,-0.4 0.2,-0.2 0.3,-0.5 0.3,-0.9 l 0,-22.8 17.5,23.6 c 0.3,0.4 0.7,0.6 1.1,0.6 0.4,0 0.7,-0.1 0.9,-0.4 0.2,-0.2 0.3,-0.5 0.3,-0.9 l 0,-26 c 0,-0.4 -0.1,-0.7 -0.3,-0.9 -0.3,-0.3 -0.6,-0.4 -1,-0.4 z m -42.3,0.8 c -0.1,-0.3 -0.3,-0.5 -0.5,-0.6 -0.3,-0.2 -0.5,-0.2 -0.8,-0.2 -0.6,0 -1.1,0.3 -1.3,0.9 l -11.7,26.2 c -0.1,0.1 -0.1,0.3 -0.1,0.4 0,0.3 0.1,0.6 0.3,0.8 0.2,0.2 0.5,0.3 0.8,0.3 0.5,0 0.9,-0.3 1.1,-0.8 l 3.1,-7 15.5,0 3,7 c 0.1,0.2 0.3,0.4 0.5,0.6 0.2,0.1 0.4,0.2 0.6,0.2 0.3,0 0.6,-0.1 0.8,-0.3 0.2,-0.2 0.4,-0.4 0.4,-0.7 0,-0.2 0,-0.3 -0.1,-0.5 L 134.7,1.6 Z m -8.2,17.9 6.8,-15.5 6.8,15.5 -13.6,0 z"
             class="st1"
             inkscape:connector-curvature="0"
             style="fill:#000034" />
        </g>
      </g>
    </g>
    <g
       transform="matrix(0.73657424,0,0,0.73657424,1774.747,-405.75194)"
       id="g5306">
      <rect
         style="color:#000000;clip-rule:nonzero;display:inline;overflow:visible;visibility:visible;opacity:1;isolation:auto;mix-blend-mode:normal;color-interpolation:sRGB;color-interpolation-filters:linearRGB;solid-color:#000000;solid-opacity:1;fill:#000000;fill-opacity:1;fill-rule:nonzero;stroke:#545454;stroke-width:0.92220092;stroke-linecap:butt;stroke-linejoin:miter;stroke-miterlimit:4;stroke-dasharray:none;stroke-dashoffset:0;stroke-opacity:1;color-rendering:auto;image-rendering:auto;shape-rendering:auto;text-rendering:auto;enable-background:accumulate"
         id="rect4615"
         width="216.20456"
         height="57.176456"
         x="-2354.647"
         y="837.73877"
         rx="1.4755214"
         ry="1.4755214" />
      <circle
         style="fill:#4a90e2"
         class="st0"
         cx="-2322.6816"
         cy="873.48328"
         r="3.5412517"
         id="circle4619" />
      <g
         id="g5281">
        <path
           id="path4621"
           d="m -2280.4817,855.92457 c -1.9182,0 -3.5413,1.5493 -3.5413,3.54125 0,2.80349 -0.4426,3.54125 -3.5412,3.54125 l -0.2951,0 c -1.7706,0.14756 -3.1724,1.62308 -3.1724,3.46748 l 0,0.0738 c 0,2.72972 -0.5164,3.3937 -3.5412,3.3937 -0.1476,0 -0.2951,0 -0.3689,0.0738 -1.7706,0.22133 -3.1724,1.69685 -3.1724,3.46748 0,1.91817 1.5493,3.54125 3.5413,3.54125 1.8444,0 3.3937,-1.47552 3.4674,-3.24615 l 0,-0.2951 c 0,-2.50839 0.8116,-3.46748 3.4675,-3.54126 l 0.074,0 c 1.8444,0 3.3937,-1.47552 3.4675,-3.31992 l 0,-0.22133 c 0,-2.58216 0.8115,-3.54125 3.5412,-3.54125 1.9182,0 3.5413,-1.5493 3.5413,-3.54125 0,-1.8444 -1.5493,-3.3937 -3.4675,-3.3937 z m -20.8049,7.0825 -0.2951,0 c -3.0986,0 -3.5412,-0.73776 -3.5412,-3.54125 0,-1.91818 -1.5493,-3.54125 -3.5413,-3.54125 -1.9181,0 -3.5412,1.5493 -3.5412,3.54125 0,2.80349 -0.4427,3.46748 -3.5413,3.46748 l -0.2951,0 c -1.7706,0.14755 -3.1723,1.62307 -3.1723,3.46747 0,1.91818 1.5493,3.54125 3.5412,3.54125 1.8444,0 3.3937,-1.47552 3.4675,-3.24614 l 0,-0.22133 c 0,-2.58216 0.8115,-3.54125 3.5412,-3.54125 2.7297,0 3.5413,0.95909 3.5413,3.46747 0,1.91818 1.5493,3.54125 3.5412,3.54125 1.992,0 3.5413,-1.54929 3.5413,-3.54125 -0.074,-1.77062 -1.4755,-3.24614 -3.2462,-3.3937 z"
           class="st0"
           inkscape:connector-curvature="0"
           style="fill:#4a90e2" />
        <g
           style="fill:#ffffff"
           id="g4623"
           transform="matrix(0.73776072,0,0,0.73776072,-2326.2229,855.48191)">
          <path
             id="path4625"
             d="m 109.3,0.8 c -0.3,0 -0.6,0.1 -0.8,0.4 -0.2,0.2 -0.3,0.5 -0.3,0.9 L 108.2,25 90.7,1.4 C 90.4,1 90.1,0.8 89.7,0.8 89.3,0.8 89,0.9 88.8,1.2 88.6,1.4 88.5,1.7 88.5,2.1 l 0,26 c 0,0.4 0.1,0.7 0.3,0.9 0.2,0.2 0.5,0.3 0.9,0.3 0.3,0 0.6,-0.1 0.8,-0.4 0.2,-0.2 0.3,-0.5 0.3,-0.9 l 0,-22.8 17.5,23.6 c 0.3,0.4 0.7,0.6 1.1,0.6 0.4,0 0.7,-0.1 0.9,-0.4 0.2,-0.2 0.3,-0.5 0.3,-0.9 l 0,-26 c 0,-0.4 -0.1,-0.7 -0.3,-0.9 -0.3,-0.3 -0.6,-0.4 -1,-0.4 z m 92,-0.8 c -8.1,0 -14.7,6.6 -14.7,14.7 0,8.1 6.6,14.7 14.7,14.7 8.1,0 14.7,-6.6 14.7,-14.7 C 216,6.6 209.4,0 201.3,0 Z m 0,27 C 194.5,27 189,21.5 189,14.7 c 0,-6.8 5.5,-12.3 12.3,-12.3 6.8,0 12.3,5.5 12.3,12.3 0,6.8 -5.5,12.3 -12.3,12.3 z M 177,0.8 c -0.3,0 -0.6,0.1 -0.8,0.4 -0.2,0.2 -0.3,0.5 -0.3,0.9 l 0,22.9 -17.5,-23.6 c -0.3,-0.4 -0.6,-0.6 -1,-0.6 -0.4,0 -0.7,0.1 -0.9,0.4 -0.2,0.2 -0.3,0.5 -0.3,0.9 l 0,26 c 0,0.4 0.1,0.7 0.3,0.9 0.2,0.2 0.5,0.3 0.9,0.3 0.3,0 0.6,-0.1 0.8,-0.4 0.2,-0.2 0.3,-0.5 0.3,-0.9 l 0,-22.8 17.5,23.6 c 0.3,0.4 0.7,0.6 1.1,0.6 0.4,0 0.7,-0.1 0.9,-0.4 0.2,-0.2 0.3,-0.5 0.3,-0.9 l 0,-26 c 0,-0.4 -0.1,-0.7 -0.3,-0.9 -0.3,-0.3 -0.6,-0.4 -1,-0.4 z m -42.3,0.8 c -0.1,-0.3 -0.3,-0.5 -0.5,-0.6 -0.3,-0.2 -0.5,-0.2 -0.8,-0.2 -0.6,0 -1.1,0.3 -1.3,0.9 l -11.7,26.2 c -0.1,0.1 -0.1,0.3 -0.1,0.4 0,0.3 0.1,0.6 0.3,0.8 0.2,0.2 0.5,0.3 0.8,0.3 0.5,0 0.9,-0.3 1.1,-0.8 l 3.1,-7 15.5,0 3,7 c 0.1,0.2 0.3,0.4 0.5,0.6 0.2,0.1 0.4,0.2 0.6,0.2 0.3,0 0.6,-0.1 0.8,-0.3 0.2,-0.2 0.4,-0.4 0.4,-0.7 0,-0.2 0,-0.3 -0.1,-0.5 L 134.7,1.6 Z m -8.2,17.9 6.8,-15.5 6.8,15.5 -13.6,0 z"
             class="st1"
             inkscape:connector-curvature="0"
             style="fill:#ffffff" />
        </g>
      </g>
    </g>
    <g
       id="g4627"
       transform="matrix(0.54341554,0,0,0.54341554,61.31113,284.374)">
      <circle
         id="circle4629"
         r="4.8000002"
         cy="24.4"
         cx="4.8000002"
         class="st0"
         style="fill:#4a90e2" />
      <path
         id="path4631"
         d="m 62,0.6 c -2.6,0 -4.8,2.1 -4.8,4.8 0,3.8 -0.6,4.8 -4.8,4.8 l -0.4,0 c -2.4,0.2 -4.3,2.2 -4.3,4.7 l 0,0.1 c 0,3.7 -0.7,4.6 -4.8,4.6 -0.2,0 -0.4,0 -0.5,0.1 -2.4,0.3 -4.3,2.3 -4.3,4.7 0,2.6 2.1,4.8 4.8,4.8 2.5,0 4.6,-2 4.7,-4.4 l 0,-0.4 c 0,-3.4 1.1,-4.7 4.7,-4.8 l 0.1,0 c 2.5,0 4.6,-2 4.7,-4.5 l 0,-0.3 c 0,-3.5 1.1,-4.8 4.8,-4.8 2.6,0 4.8,-2.1 4.8,-4.8 0,-2.5 -2.1,-4.6 -4.7,-4.6 z m -28.2,9.6 -0.4,0 c -4.2,0 -4.8,-1 -4.8,-4.8 0,-2.6 -2.1,-4.8 -4.8,-4.8 -2.6,0 -4.8,2.1 -4.8,4.8 0,3.8 -0.6,4.7 -4.8,4.7 l -0.4,0 c -2.4,0.2 -4.3,2.2 -4.3,4.7 0,2.6 2.1,4.8 4.8,4.8 2.5,0 4.6,-2 4.7,-4.4 l 0,-0.3 c 0,-3.5 1.1,-4.8 4.8,-4.8 3.7,0 4.8,1.3 4.8,4.7 0,2.6 2.1,4.8 4.8,4.8 2.7,0 4.8,-2.1 4.8,-4.8 -0.1,-2.4 -2,-4.4 -4.4,-4.6 z"
         class="st0"
         inkscape:connector-curvature="0"
         style="fill:#4a90e2" />
      <g
         id="g4633"
         style="fill:#ffffff">
        <path
           id="path4635"
           d="m 109.3,0.8 c -0.3,0 -0.6,0.1 -0.8,0.4 -0.2,0.2 -0.3,0.5 -0.3,0.9 L 108.2,25 90.7,1.4 C 90.4,1 90.1,0.8 89.7,0.8 89.3,0.8 89,0.9 88.8,1.2 88.6,1.4 88.5,1.7 88.5,2.1 l 0,26 c 0,0.4 0.1,0.7 0.3,0.9 0.2,0.2 0.5,0.3 0.9,0.3 0.3,0 0.6,-0.1 0.8,-0.4 0.2,-0.2 0.3,-0.5 0.3,-0.9 l 0,-22.8 17.5,23.6 c 0.3,0.4 0.7,0.6 1.1,0.6 0.4,0 0.7,-0.1 0.9,-0.4 0.2,-0.2 0.3,-0.5 0.3,-0.9 l 0,-26 c 0,-0.4 -0.1,-0.7 -0.3,-0.9 -0.3,-0.3 -0.6,-0.4 -1,-0.4 z m 92,-0.8 c -8.1,0 -14.7,6.6 -14.7,14.7 0,8.1 6.6,14.7 14.7,14.7 8.1,0 14.7,-6.6 14.7,-14.7 C 216,6.6 209.4,0 201.3,0 Z m 0,27 C 194.5,27 189,21.5 189,14.7 c 0,-6.8 5.5,-12.3 12.3,-12.3 6.8,0 12.3,5.5 12.3,12.3 0,6.8 -5.5,12.3 -12.3,12.3 z M 177,0.8 c -0.3,0 -0.6,0.1 -0.8,0.4 -0.2,0.2 -0.3,0.5 -0.3,0.9 l 0,22.9 -17.5,-23.6 c -0.3,-0.4 -0.6,-0.6 -1,-0.6 -0.4,0 -0.7,0.1 -0.9,0.4 -0.2,0.2 -0.3,0.5 -0.3,0.9 l 0,26 c 0,0.4 0.1,0.7 0.3,0.9 0.2,0.2 0.5,0.3 0.9,0.3 0.3,0 0.6,-0.1 0.8,-0.4 0.2,-0.2 0.3,-0.5 0.3,-0.9 l 0,-22.8 17.5,23.6 c 0.3,0.4 0.7,0.6 1.1,0.6 0.4,0 0.7,-0.1 0.9,-0.4 0.2,-0.2 0.3,-0.5 0.3,-0.9 l 0,-26 c 0,-0.4 -0.1,-0.7 -0.3,-0.9 -0.3,-0.3 -0.6,-0.4 -1,-0.4 z m -42.3,0.8 c -0.1,-0.3 -0.3,-0.5 -0.5,-0.6 -0.3,-0.2 -0.5,-0.2 -0.8,-0.2 -0.6,0 -1.1,0.3 -1.3,0.9 l -11.7,26.2 c -0.1,0.1 -0.1,0.3 -0.1,0.4 0,0.3 0.1,0.6 0.3,0.8 0.2,0.2 0.5,0.3 0.8,0.3 0.5,0 0.9,-0.3 1.1,-0.8 l 3.1,-7 15.5,0 3,7 c 0.1,0.2 0.3,0.4 0.5,0.6 0.2,0.1 0.4,0.2 0.6,0.2 0.3,0 0.6,-0.1 0.8,-0.3 0.2,-0.2 0.4,-0.4 0.4,-0.7 0,-0.2 0,-0.3 -0.1,-0.5 L 134.7,1.6 Z m -8.2,17.9 6.8,-15.5 6.8,15.5 -13.6,0 z"
           class="st1"
           inkscape:connector-curvature="0"
           style="fill:#ffffff" />
      </g>
    </g>
    <g
       transform="matrix(0.54341554,0,0,0.54341554,61.31113,344.374)"
       id="g4637">
      <circle
         style="fill:#4a90e2"
         class="st0"
         cx="4.8000002"
         cy="24.4"
         r="4.8000002"
         id="circle4639" />
      <path
         style="fill:#4a90e2"
         inkscape:connector-curvature="0"
         class="st0"
         d="m 62,0.6 c -2.6,0 -4.8,2.1 -4.8,4.8 0,3.8 -0.6,4.8 -4.8,4.8 l -0.4,0 c -2.4,0.2 -4.3,2.2 -4.3,4.7 l 0,0.1 c 0,3.7 -0.7,4.6 -4.8,4.6 -0.2,0 -0.4,0 -0.5,0.1 -2.4,0.3 -4.3,2.3 -4.3,4.7 0,2.6 2.1,4.8 4.8,4.8 2.5,0 4.6,-2 4.7,-4.4 l 0,-0.4 c 0,-3.4 1.1,-4.7 4.7,-4.8 l 0.1,0 c 2.5,0 4.6,-2 4.7,-4.5 l 0,-0.3 c 0,-3.5 1.1,-4.8 4.8,-4.8 2.6,0 4.8,-2.1 4.8,-4.8 0,-2.5 -2.1,-4.6 -4.7,-4.6 z m -28.2,9.6 -0.4,0 c -4.2,0 -4.8,-1 -4.8,-4.8 0,-2.6 -2.1,-4.8 -4.8,-4.8 -2.6,0 -4.8,2.1 -4.8,4.8 0,3.8 -0.6,4.7 -4.8,4.7 l -0.4,0 c -2.4,0.2 -4.3,2.2 -4.3,4.7 0,2.6 2.1,4.8 4.8,4.8 2.5,0 4.6,-2 4.7,-4.4 l 0,-0.3 c 0,-3.5 1.1,-4.8 4.8,-4.8 3.7,0 4.8,1.3 4.8,4.7 0,2.6 2.1,4.8 4.8,4.8 2.7,0 4.8,-2.1 4.8,-4.8 -0.1,-2.4 -2,-4.4 -4.4,-4.6 z"
         id="path4641" />
      <g
         id="g4643">
        <path
           style="fill:#000034"
           inkscape:connector-curvature="0"
           class="st1"
           d="m 109.3,0.8 c -0.3,0 -0.6,0.1 -0.8,0.4 -0.2,0.2 -0.3,0.5 -0.3,0.9 L 108.2,25 90.7,1.4 C 90.4,1 90.1,0.8 89.7,0.8 89.3,0.8 89,0.9 88.8,1.2 88.6,1.4 88.5,1.7 88.5,2.1 l 0,26 c 0,0.4 0.1,0.7 0.3,0.9 0.2,0.2 0.5,0.3 0.9,0.3 0.3,0 0.6,-0.1 0.8,-0.4 0.2,-0.2 0.3,-0.5 0.3,-0.9 l 0,-22.8 17.5,23.6 c 0.3,0.4 0.7,0.6 1.1,0.6 0.4,0 0.7,-0.1 0.9,-0.4 0.2,-0.2 0.3,-0.5 0.3,-0.9 l 0,-26 c 0,-0.4 -0.1,-0.7 -0.3,-0.9 -0.3,-0.3 -0.6,-0.4 -1,-0.4 z m 92,-0.8 c -8.1,0 -14.7,6.6 -14.7,14.7 0,8.1 6.6,14.7 14.7,14.7 8.1,0 14.7,-6.6 14.7,-14.7 C 216,6.6 209.4,0 201.3,0 Z m 0,27 C 194.5,27 189,21.5 189,14.7 c 0,-6.8 5.5,-12.3 12.3,-12.3 6.8,0 12.3,5.5 12.3,12.3 0,6.8 -5.5,12.3 -12.3,12.3 z M 177,0.8 c -0.3,0 -0.6,0.1 -0.8,0.4 -0.2,0.2 -0.3,0.5 -0.3,0.9 l 0,22.9 -17.5,-23.6 c -0.3,-0.4 -0.6,-0.6 -1,-0.6 -0.4,0 -0.7,0.1 -0.9,0.4 -0.2,0.2 -0.3,0.5 -0.3,0.9 l 0,26 c 0,0.4 0.1,0.7 0.3,0.9 0.2,0.2 0.5,0.3 0.9,0.3 0.3,0 0.6,-0.1 0.8,-0.4 0.2,-0.2 0.3,-0.5 0.3,-0.9 l 0,-22.8 17.5,23.6 c 0.3,0.4 0.7,0.6 1.1,0.6 0.4,0 0.7,-0.1 0.9,-0.4 0.2,-0.2 0.3,-0.5 0.3,-0.9 l 0,-26 c 0,-0.4 -0.1,-0.7 -0.3,-0.9 -0.3,-0.3 -0.6,-0.4 -1,-0.4 z m -42.3,0.8 c -0.1,-0.3 -0.3,-0.5 -0.5,-0.6 -0.3,-0.2 -0.5,-0.2 -0.8,-0.2 -0.6,0 -1.1,0.3 -1.3,0.9 l -11.7,26.2 c -0.1,0.1 -0.1,0.3 -0.1,0.4 0,0.3 0.1,0.6 0.3,0.8 0.2,0.2 0.5,0.3 0.8,0.3 0.5,0 0.9,-0.3 1.1,-0.8 l 3.1,-7 15.5,0 3,7 c 0.1,0.2 0.3,0.4 0.5,0.6 0.2,0.1 0.4,0.2 0.6,0.2 0.3,0 0.6,-0.1 0.8,-0.3 0.2,-0.2 0.4,-0.4 0.4,-0.7 0,-0.2 0,-0.3 -0.1,-0.5 L 134.7,1.6 Z m -8.2,17.9 6.8,-15.5 6.8,15.5 -13.6,0 z"
           id="path4645" />
      </g>
    </g>
    <g
       id="g6554"
       transform="translate(368.86863,31.3163)">
      <circle
         id="circle4649"
         r="2.6083946"
         cy="386.31705"
         cx="-304.9491"
         class="st0"
         style="fill:#ffffff" />
      <path
         id="path4651"
         d="m -273.86573,373.38376 c -1.41288,0 -2.6084,1.14117 -2.6084,2.60839 0,2.06498 -0.32605,2.6084 -2.60839,2.6084 l -0.21737,0 c -1.30419,0.10868 -2.33668,1.19551 -2.33668,2.55405 l 0,0.0543 c 0,2.01064 -0.38039,2.49971 -2.6084,2.49971 -0.10868,0 -0.21736,0 -0.27171,0.0544 -1.30419,0.16302 -2.33668,1.24985 -2.33668,2.55405 0,1.41288 1.14117,2.60839 2.60839,2.60839 1.35854,0 2.49971,-1.08683 2.55405,-2.39102 l 0,-0.21737 c 0,-1.84761 0.59776,-2.55405 2.55406,-2.6084 l 0.0543,0 c 1.35854,0 2.49971,-1.08683 2.55405,-2.44537 l 0,-0.16302 c 0,-1.90195 0.59776,-2.60839 2.6084,-2.60839 1.41288,0 2.60839,-1.14118 2.60839,-2.6084 0,-1.35854 -1.14117,-2.49971 -2.55405,-2.49971 z m -15.32432,5.21679 -0.21737,0 c -2.28234,0 -2.60839,-0.54342 -2.60839,-2.6084 0,-1.41288 -1.14117,-2.60839 -2.6084,-2.60839 -1.41288,0 -2.60839,1.14117 -2.60839,2.60839 0,2.06498 -0.32605,2.55406 -2.6084,2.55406 l -0.21736,0 c -1.3042,0.10868 -2.33669,1.19551 -2.33669,2.55405 0,1.41288 1.14117,2.60839 2.6084,2.60839 1.35853,0 2.49971,-1.08683 2.55405,-2.39102 l 0,-0.16303 c 0,-1.90195 0.59776,-2.60839 2.60839,-2.60839 2.01064,0 2.6084,0.70644 2.6084,2.55405 0,1.41288 1.14117,2.60839 2.60839,2.60839 1.46723,0 2.6084,-1.14117 2.6084,-2.60839 -0.0543,-1.3042 -1.08683,-2.39103 -2.39103,-2.49971 z"
         class="st0"
         inkscape:connector-curvature="0"
         style="fill:#ffffff" />
      <g
         transform="matrix(0.54341554,0,0,0.54341554,-307.5575,373.0577)"
         id="g4653"
         style="fill:#ffffff">
        <path
           id="path4655"
           d="m 109.3,0.8 c -0.3,0 -0.6,0.1 -0.8,0.4 -0.2,0.2 -0.3,0.5 -0.3,0.9 L 108.2,25 90.7,1.4 C 90.4,1 90.1,0.8 89.7,0.8 89.3,0.8 89,0.9 88.8,1.2 88.6,1.4 88.5,1.7 88.5,2.1 l 0,26 c 0,0.4 0.1,0.7 0.3,0.9 0.2,0.2 0.5,0.3 0.9,0.3 0.3,0 0.6,-0.1 0.8,-0.4 0.2,-0.2 0.3,-0.5 0.3,-0.9 l 0,-22.8 17.5,23.6 c 0.3,0.4 0.7,0.6 1.1,0.6 0.4,0 0.7,-0.1 0.9,-0.4 0.2,-0.2 0.3,-0.5 0.3,-0.9 l 0,-26 c 0,-0.4 -0.1,-0.7 -0.3,-0.9 -0.3,-0.3 -0.6,-0.4 -1,-0.4 z m 92,-0.8 c -8.1,0 -14.7,6.6 -14.7,14.7 0,8.1 6.6,14.7 14.7,14.7 8.1,0 14.7,-6.6 14.7,-14.7 C 216,6.6 209.4,0 201.3,0 Z m 0,27 C 194.5,27 189,21.5 189,14.7 c 0,-6.8 5.5,-12.3 12.3,-12.3 6.8,0 12.3,5.5 12.3,12.3 0,6.8 -5.5,12.3 -12.3,12.3 z M 177,0.8 c -0.3,0 -0.6,0.1 -0.8,0.4 -0.2,0.2 -0.3,0.5 -0.3,0.9 l 0,22.9 -17.5,-23.6 c -0.3,-0.4 -0.6,-0.6 -1,-0.6 -0.4,0 -0.7,0.1 -0.9,0.4 -0.2,0.2 -0.3,0.5 -0.3,0.9 l 0,26 c 0,0.4 0.1,0.7 0.3,0.9 0.2,0.2 0.5,0.3 0.9,0.3 0.3,0 0.6,-0.1 0.8,-0.4 0.2,-0.2 0.3,-0.5 0.3,-0.9 l 0,-22.8 17.5,23.6 c 0.3,0.4 0.7,0.6 1.1,0.6 0.4,0 0.7,-0.1 0.9,-0.4 0.2,-0.2 0.3,-0.5 0.3,-0.9 l 0,-26 c 0,-0.4 -0.1,-0.7 -0.3,-0.9 -0.3,-0.3 -0.6,-0.4 -1,-0.4 z m -42.3,0.8 c -0.1,-0.3 -0.3,-0.5 -0.5,-0.6 -0.3,-0.2 -0.5,-0.2 -0.8,-0.2 -0.6,0 -1.1,0.3 -1.3,0.9 l -11.7,26.2 c -0.1,0.1 -0.1,0.3 -0.1,0.4 0,0.3 0.1,0.6 0.3,0.8 0.2,0.2 0.5,0.3 0.8,0.3 0.5,0 0.9,-0.3 1.1,-0.8 l 3.1,-7 15.5,0 3,7 c 0.1,0.2 0.3,0.4 0.5,0.6 0.2,0.1 0.4,0.2 0.6,0.2 0.3,0 0.6,-0.1 0.8,-0.3 0.2,-0.2 0.4,-0.4 0.4,-0.7 0,-0.2 0,-0.3 -0.1,-0.5 L 134.7,1.6 Z m -8.2,17.9 6.8,-15.5 6.8,15.5 -13.6,0 z"
           class="st1"
           inkscape:connector-curvature="0"
           style="fill:#ffffff" />
      </g>
    </g>
    <g
       id="g6560"
       transform="translate(368.86862,-8.49282)">
      <g
         style="fill:#000000"
         id="g4657"
         transform="matrix(0.54341554,0,0,0.54341554,-307.55749,472.86682)">
        <circle
           id="circle4659"
           r="4.8000002"
           cy="24.4"
           cx="4.8000002"
           class="st0"
           style="fill:#000000" />
        <path
           id="path4661"
           d="m 62,0.6 c -2.6,0 -4.8,2.1 -4.8,4.8 0,3.8 -0.6,4.8 -4.8,4.8 l -0.4,0 c -2.4,0.2 -4.3,2.2 -4.3,4.7 l 0,0.1 c 0,3.7 -0.7,4.6 -4.8,4.6 -0.2,0 -0.4,0 -0.5,0.1 -2.4,0.3 -4.3,2.3 -4.3,4.7 0,2.6 2.1,4.8 4.8,4.8 2.5,0 4.6,-2 4.7,-4.4 l 0,-0.4 c 0,-3.4 1.1,-4.7 4.7,-4.8 l 0.1,0 c 2.5,0 4.6,-2 4.7,-4.5 l 0,-0.3 c 0,-3.5 1.1,-4.8 4.8,-4.8 2.6,0 4.8,-2.1 4.8,-4.8 0,-2.5 -2.1,-4.6 -4.7,-4.6 z m -28.2,9.6 -0.4,0 c -4.2,0 -4.8,-1 -4.8,-4.8 0,-2.6 -2.1,-4.8 -4.8,-4.8 -2.6,0 -4.8,2.1 -4.8,4.8 0,3.8 -0.6,4.7 -4.8,4.7 l -0.4,0 c -2.4,0.2 -4.3,2.2 -4.3,4.7 0,2.6 2.1,4.8 4.8,4.8 2.5,0 4.6,-2 4.7,-4.4 l 0,-0.3 c 0,-3.5 1.1,-4.8 4.8,-4.8 3.7,0 4.8,1.3 4.8,4.7 0,2.6 2.1,4.8 4.8,4.8 2.7,0 4.8,-2.1 4.8,-4.8 -0.1,-2.4 -2,-4.4 -4.4,-4.6 z"
           class="st0"
           inkscape:connector-curvature="0"
           style="fill:#000000" />
        <g
           style="fill:#000000"
           id="g4663">
          <path
             id="path4665"
             d="m 109.3,0.8 c -0.3,0 -0.6,0.1 -0.8,0.4 -0.2,0.2 -0.3,0.5 -0.3,0.9 L 108.2,25 90.7,1.4 C 90.4,1 90.1,0.8 89.7,0.8 89.3,0.8 89,0.9 88.8,1.2 88.6,1.4 88.5,1.7 88.5,2.1 l 0,26 c 0,0.4 0.1,0.7 0.3,0.9 0.2,0.2 0.5,0.3 0.9,0.3 0.3,0 0.6,-0.1 0.8,-0.4 0.2,-0.2 0.3,-0.5 0.3,-0.9 l 0,-22.8 17.5,23.6 c 0.3,0.4 0.7,0.6 1.1,0.6 0.4,0 0.7,-0.1 0.9,-0.4 0.2,-0.2 0.3,-0.5 0.3,-0.9 l 0,-26 c 0,-0.4 -0.1,-0.7 -0.3,-0.9 -0.3,-0.3 -0.6,-0.4 -1,-0.4 z m 92,-0.8 c -8.1,0 -14.7,6.6 -14.7,14.7 0,8.1 6.6,14.7 14.7,14.7 8.1,0 14.7,-6.6 14.7,-14.7 C 216,6.6 209.4,0 201.3,0 Z m 0,27 C 194.5,27 189,21.5 189,14.7 c 0,-6.8 5.5,-12.3 12.3,-12.3 6.8,0 12.3,5.5 12.3,12.3 0,6.8 -5.5,12.3 -12.3,12.3 z M 177,0.8 c -0.3,0 -0.6,0.1 -0.8,0.4 -0.2,0.2 -0.3,0.5 -0.3,0.9 l 0,22.9 -17.5,-23.6 c -0.3,-0.4 -0.6,-0.6 -1,-0.6 -0.4,0 -0.7,0.1 -0.9,0.4 -0.2,0.2 -0.3,0.5 -0.3,0.9 l 0,26 c 0,0.4 0.1,0.7 0.3,0.9 0.2,0.2 0.5,0.3 0.9,0.3 0.3,0 0.6,-0.1 0.8,-0.4 0.2,-0.2 0.3,-0.5 0.3,-0.9 l 0,-22.8 17.5,23.6 c 0.3,0.4 0.7,0.6 1.1,0.6 0.4,0 0.7,-0.1 0.9,-0.4 0.2,-0.2 0.3,-0.5 0.3,-0.9 l 0,-26 c 0,-0.4 -0.1,-0.7 -0.3,-0.9 -0.3,-0.3 -0.6,-0.4 -1,-0.4 z m -42.3,0.8 c -0.1,-0.3 -0.3,-0.5 -0.5,-0.6 -0.3,-0.2 -0.5,-0.2 -0.8,-0.2 -0.6,0 -1.1,0.3 -1.3,0.9 l -11.7,26.2 c -0.1,0.1 -0.1,0.3 -0.1,0.4 0,0.3 0.1,0.6 0.3,0.8 0.2,0.2 0.5,0.3 0.8,0.3 0.5,0 0.9,-0.3 1.1,-0.8 l 3.1,-7 15.5,0 3,7 c 0.1,0.2 0.3,0.4 0.5,0.6 0.2,0.1 0.4,0.2 0.6,0.2 0.3,0 0.6,-0.1 0.8,-0.3 0.2,-0.2 0.4,-0.4 0.4,-0.7 0,-0.2 0,-0.3 -0.1,-0.5 L 134.7,1.6 Z m -8.2,17.9 6.8,-15.5 6.8,15.5 -13.6,0 z"
             class="st1"
             inkscape:connector-curvature="0"
             style="fill:#000000" />
        </g>
      </g>
    </g>
  </g>
</svg>
